<?xml version="1.0" standalone="no"?>
<!DOCTYPE svg PUBLIC "-//W3C//DTD SVG 1.1//EN" "http://www.w3.org/Graphics/SVG/1.1/DTD/svg11.dtd" >
<svg xmlns="http://www.w3.org/2000/svg">
<metadata>Generated by IcoMoon</metadata>
<defs>
<font id="icomoon" horiz-adv-x="1024">
<font-face units-per-em="1024" ascent="960" descent="-64" />
<missing-glyph horiz-adv-x="1024" />
<glyph unicode="&#x20;" horiz-adv-x="512" d="" />
<glyph unicode="&#xe900;" glyph-name="exchange" horiz-adv-x="981" d="M912.73 714.024h-461.521c-21.634 0-36.056 14.423-36.056 36.056s14.423 36.056 36.056 36.056h367.775l-122.592 108.169c-14.423 14.423-14.423 36.056 0 50.479s36.056 14.423 50.479 0l194.704-180.282c14.423-7.211 14.423-28.845 7.211-43.268-7.211 0-21.634-7.211-36.056-7.211zM718.026 533.742c-7.211 0-21.634 7.211-28.845 14.423-14.423 14.423-14.423 36.056 0 50.479l201.915 173.070c14.423 14.423 36.056 14.423 50.479 0s14.423-36.056 0-50.479l-194.704-180.282c-14.423-7.211-21.634-7.211-28.845-7.211zM266.817 742.869c0 28.845 14.423 43.268 43.268 43.268s43.268-14.423 43.268-43.268-21.634-43.268-43.268-43.268-43.268 21.634-43.268 43.268c0 0 0 0 0 0zM173.070 786.136c23.896 0 43.268-19.372 43.268-43.268s-19.372-43.268-43.268-43.268c-23.896 0-43.268 19.372-43.268 43.268s19.372 43.268 43.268 43.268zM43.268 786.136c23.896 0 43.268-19.372 43.268-43.268s-19.372-43.268-43.268-43.268c-23.896 0-43.268 19.372-43.268 43.268s19.372 43.268 43.268 43.268zM260.832-61.115c-7.211 0-14.423 0-21.634 7.211l-194.704 180.282c-14.423 7.211-14.423 28.845-7.211 36.056 0 14.423 14.423 21.634 28.845 21.634h461.521c21.634 0 36.056-14.423 36.056-36.056s-14.423-36.056-36.056-36.056h-367.775l122.592-108.169c14.423-14.423 14.423-36.056 0-50.479 0-14.423-7.211-14.423-21.634-14.423zM66.127 111.955c-7.211 0-21.634 7.211-28.845 14.423-14.423 14.423-14.423 36.056 0 50.479l194.704 180.282c14.423 14.423 36.056 14.423 50.479 0s14.423-36.056 0-50.479l-194.704-180.282c-7.211-7.211-14.423-14.423-21.634-14.423zM668.773 111.955c-23.896 0-43.268 19.372-43.268 43.268s19.372 43.268 43.268 43.268c23.896 0 43.268-19.372 43.268-43.268s-19.372-43.268-43.268-43.268zM805.787 111.955c-23.896 0-43.268 19.372-43.268 43.268s19.372 43.268 43.268 43.268c23.896 0 43.268-19.372 43.268-43.268s-19.372-43.268-43.268-43.268zM978.857 155.223c0-28.845-21.634-43.268-43.268-43.268s-43.268 14.423-43.268 43.268 21.634 43.268 43.268 43.268 43.268-21.634 43.268-43.268c0 0 0 0 0 0z" />
<glyph unicode="&#xe901;" glyph-name="account" horiz-adv-x="1072" d="M953.018 589.36v-531.56c0-14.478 11.737-26.215 26.215-26.215s26.215 11.737 26.215 26.215v0 531.56c0 14.478-11.737 26.215-26.215 26.215s-26.215-11.737-26.215-26.215v0zM26.215 666.391h1019.564c14.478 0 26.215 11.737 26.215 26.215s-11.737 26.215-26.215 26.215h-1019.564c-14.478 0-26.215-11.737-26.215-26.215s11.737-26.215 26.215-26.215v0zM1045.779-11.57h-1019.564c-14.478 0-26.215-11.737-26.215-26.215s11.737-26.215 26.215-26.215v0h1019.564c14.478 0 26.215 11.737 26.215 26.215s-11.737 26.215-26.215 26.215v0zM80.662 589.36v-531.56c-0.128-0.974-0.202-2.101-0.202-3.245 0-14.478 11.737-26.215 26.215-26.215s26.215 11.737 26.215 26.215c0 1.144-0.073 2.271-0.215 3.376l0.014-0.131v531.56c0.128 0.974 0.202 2.101 0.202 3.245 0 14.478-11.737 26.215-26.215 26.215s-26.215-11.737-26.215-26.215c0-1.144 0.073-2.271 0.215-3.376l-0.014 0.131zM165.76 589.36v-531.56c0-14.478 11.737-26.215 26.215-26.215s26.215 11.737 26.215 26.215v531.56c0 14.478-11.737 26.215-26.215 26.215s-26.215-11.737-26.215-26.215v0zM866.71 589.36v-531.56c0-14.478 11.737-26.215 26.215-26.215s26.215 11.737 26.215 26.215v0 531.56c0 14.478-11.737 26.215-26.215 26.215s-26.215-11.737-26.215-26.215v0zM226.256 738.987c0.126-0.002 0.275-0.004 0.424-0.004 4.447 0 8.613 1.199 12.193 3.292l-0.115-0.062 297.238 161.323 297.238-161.323c3.261-1.566 7.089-2.48 11.13-2.48 14.478 0 26.215 11.737 26.215 26.215 0 9.337-4.882 17.535-12.232 22.179l-0.108 0.064-309.741 168.583c-3.586 2.106-7.899 3.35-12.503 3.35s-8.916-1.244-12.621-3.414l0.118 0.064-309.741-168.583c-8.897-4.319-14.922-13.285-14.922-23.658 0-4.317 1.043-8.389 2.891-11.98l-0.069 0.147c4.309-8.254 12.807-13.792 22.597-13.792 0.706 0 1.404 0.029 2.095 0.085l-0.091-0.006zM535.997 122.328c14.478 0 26.215 11.737 26.215 26.215v0 11.696c1.267-0.095 2.745-0.149 4.235-0.149s2.968 0.054 4.43 0.161l-0.196-0.011c43.813 9.677 76.102 48.183 76.102 94.231 0 33.693-17.287 63.348-43.474 80.58l-0.363 0.225c-11.481 7.448-25.184 12.49-39.921 14.080l-0.41 0.036v80.662c16.996-6.765 29.375-21.823 32.227-40.040l0.038-0.291c1.142-13.079 12.040-23.262 25.318-23.262 1.313 0 2.602 0.1 3.862 0.292l-0.141-0.018c12.325 2.299 21.53 12.971 21.53 25.793 0 1.001-0.056 1.989-0.165 2.961l0.011-0.119c-5.713 45.334-39.771 81.305-83.633 89.831l-0.658 0.107v13.712c0 14.478-11.737 26.215-26.215 26.215s-26.215-11.737-26.215-26.215v0-14.116c-43.918-8.851-77.374-44.629-82.631-89.047l-0.047-0.487c-0.192-0.909-0.301-1.954-0.301-3.025s0.11-2.115 0.319-3.124l-0.017 0.099c5.37-45.452 39.359-81.627 83.229-90.233l0.659-0.108v-80.662c-16.88 6.805-29.13 21.87-31.827 40.051l-0.034 0.28c-1.788 13.119-12.92 23.121-26.388 23.121-0.933 0-1.856-0.048-2.764-0.142l0.114 0.010c-13.091-1.366-23.208-12.342-23.208-25.68 0-1.184 0.080-2.349 0.234-3.491l-0.015 0.133c5.41-45.34 39.41-81.39 83.237-89.833l0.651-0.104v-13.712c-0.002-0.12-0.003-0.262-0.003-0.403 0-14.478 11.737-26.215 26.215-26.215 0.001 0 0.002 0 0.003 0v0zM562.212 296.961c4.73-1.11 8.901-2.775 12.735-4.962l-0.232 0.122c13.385-7.604 22.268-21.765 22.268-38 0-20.945-14.784-38.438-34.486-42.611l-0.285-0.050zM478.324 392.142c3.247 17.595 15.19 31.809 31.116 38.193l0.342 0.121v-75.419c-15.9 6.416-27.688 20.068-31.394 36.761l-0.064 0.343z" />
<glyph unicode="&#xe902;" glyph-name="check" horiz-adv-x="1326" d="M405.477-64l-405.477 412.349 96.215 96.215 309.262-309.262 817.826 824.698 103.087-96.215z" />
<glyph unicode="&#xe904;" glyph-name="history" d="M991.067 712.258h-733.316c-19.819 0-33.032 13.213-33.032 33.032s13.213 33.032 33.032 33.032h733.316c19.819 0 33.032-13.213 33.032-33.032s-13.213-33.032-33.032-33.032zM991.067 517.368h-733.316c-19.819 0-33.032 13.213-33.032 33.032s13.213 33.032 33.032 33.032h733.316c19.819 0 33.032-13.213 33.032-33.032s-13.213-33.032-33.032-33.032zM991.067 309.265h-733.316c-19.819 0-33.032 13.213-33.032 33.032s13.213 33.032 33.032 33.032h733.316c19.819 0 33.032-13.213 33.032-33.032s-13.213-33.032-33.032-33.032zM991.067 114.374h-733.316c-19.819 0-33.032 13.213-33.032 33.032s13.213 33.032 33.032 33.032h733.316c19.819 0 33.032-13.213 33.032-33.032s-13.213-33.032-33.032-33.032zM151.948 712.258h-118.916c-19.819 0-33.032 13.213-33.032 33.032s13.213 33.032 33.032 33.032h118.916c19.819 0 33.032-13.213 33.032-33.032s-13.213-33.032-33.032-33.032zM151.948 517.368h-118.916c-19.819 0-33.032 13.213-33.032 33.032s13.213 33.032 33.032 33.032h118.916c19.819 0 33.032-13.213 33.032-33.032s-13.213-33.032-33.032-33.032zM151.948 309.265h-118.916c-19.819 0-33.032 13.213-33.032 33.032s13.213 33.032 33.032 33.032h118.916c19.819 0 33.032-13.213 33.032-33.032s-13.213-33.032-33.032-33.032zM151.948 114.374h-118.916c-19.819 0-33.032 13.213-33.032 33.032s13.213 33.032 33.032 33.032h118.916c19.819 0 33.032-13.213 33.032-33.032s-13.213-33.032-33.032-33.032z" />
<glyph unicode="&#xe905;" glyph-name="home-delivery" d="M899.459 104.822v0c-71.957 0-132.843 49.816-132.843 110.703 0 63.654 58.119 110.703 132.843 110.703 71.957 0 132.843-49.816 132.843-110.703-2.768-60.886-60.886-110.703-132.843-110.703zM899.459 298.551c-58.119 0-105.168-38.746-105.168-83.027 0-47.049 47.049-83.027 105.168-83.027v0c0 0 0 0 0 0 27.676 0 55.351 8.303 74.724 24.908s30.443 35.978 30.443 58.119c-2.768 47.049-49.816 83.027-105.168 83.027zM907.762 151.87c-11.070 0-24.908 2.768-35.978 11.070-13.838 8.303-22.141 22.141-27.676 38.746-5.535 33.211 16.605 66.422 49.816 74.724h2.768c35.978 2.768 69.189-22.141 71.957-60.886 0-30.443-22.141-58.119-49.816-63.654-2.768 0-8.303 0-11.070 0zM899.459 248.735c-19.373-2.768-30.443-22.141-27.676-41.514 2.768-8.303 8.303-16.605 13.838-22.141 8.303-5.535 16.605-8.303 24.908-5.535 16.605 2.768 27.676 16.605 27.676 33.211 2.768 22.141-16.605 38.746-38.746 35.978zM91.33 539.33c-13.838 0-24.908 11.070-24.908 24.908v190.962c2.768 16.605 13.838 27.676 27.676 24.908h121.773v-44.281h16.605v44.281h121.773c13.838 0 24.908-8.303 27.676-24.908v-190.962c-2.768-16.605-13.838-27.676-30.443-24.908h-260.151c0 0 0 0 0 0zM91.33 752.432v-185.427l257.384 2.768v185.427l-91.33-2.768v-22.141c0-13.838-13.838-22.141-24.908-22.141h-22.141c-11.070 0-22.141 8.303-24.908 19.373v24.908h-94.097zM207.568 735.827c0 0 0 0 0 0v0c0 0 0 0 0 0zM232.476 735.827c0 0 0 0 0 0v0c0 0 0 0 0 0zM240.778 104.822v0c-71.957 0-132.843 49.816-132.843 110.703 0 63.654 58.119 110.703 132.843 110.703 71.957 0 132.843-49.816 132.843-110.703s-58.119-110.703-132.843-110.703zM240.778 298.551c-58.119 0-105.168-38.746-105.168-83.027 0-47.049 47.049-83.027 105.168-83.027v0c0 0 0 0 0 0 27.676 0 55.351 8.303 74.724 24.908s30.443 35.978 30.443 58.119c0 47.049-47.049 83.027-105.168 83.027zM251.849 151.87c-2.768 0-5.535 0-11.070 0-8.303 0-13.838 0-22.141 0-33.211 5.535-55.351 38.746-49.816 74.724 2.768 16.605 13.838 30.443 27.676 38.746s27.676 11.070 44.281 11.070c8.303 0 13.838 0 22.141 0 33.211-5.535 55.351-38.746 49.816-74.724-2.768-16.605-13.838-30.443-27.676-38.746-11.070-5.535-22.141-11.070-33.211-11.070zM240.778 182.314v0c22.141-5.535 38.746 8.303 44.281 27.676s-8.303 35.978-27.676 41.514c-5.535 0-8.303 0-13.838 0h-5.535c-8.303 2.768-19.373 0-24.908-5.535-8.303-5.535-13.838-13.838-13.838-22.141-2.768-19.373 8.303-35.978 27.676-41.514 2.768-2.768 8.303-2.768 13.838 0v0zM431.741 182.314c-22.141 0-41.514 16.605-44.281 41.514 0 66.422-66.422 119.005-146.681 119.005s-143.914-52.584-143.914-116.238c-2.768-24.908-24.908-44.281-49.816-41.514-22.141-2.768-44.281 16.605-47.049 41.514 0 88.562 69.189 166.054 168.822 193.73v2.768h-66.422c-22.141-2.768-44.281 16.605-47.049 41.514v22.141c2.768 24.908 24.908 44.281 49.816 41.514h412.368c22.141 2.768 44.281-16.605 47.049-41.514v-22.141c-2.768-24.908-24.908-44.281-49.816-41.514h-30.443v-80.259h210.335c16.605 19.373 33.211 33.211 55.351 47.049l-83.027 246.314h-74.724c-22.141-2.768-44.281 16.605-47.049 41.514v5.535c2.768 24.908 24.908 41.514 49.816 41.514h116.238c5.535 0 13.838 0 19.373-2.768s13.838-5.535 19.373-13.838l238.011-293.362c11.070-8.303 16.605-24.908 11.070-41.514l-2.768-2.768c-13.838-22.141-41.514-30.443-66.422-19.373-11.070 2.768-27.676 5.535-41.514 5.535-80.259 0-146.681-52.584-146.681-116.238-2.768-24.908-24.908-44.281-49.816-41.514h-260.151c2.768-16.605 0-16.605 0-16.605zM185.427 445.232h13.838v-52.584l-11.070-2.768c-94.097-19.373-160.519-88.562-160.519-166.054 0-8.303 8.303-13.838 19.373-13.838s19.373 5.535 22.141 16.605c0 77.492 77.492 143.914 174.357 143.914 94.097 0 174.357-63.654 174.357-143.914 0-8.303 11.070-13.838 19.373-13.838h262.919c11.070 0 19.373 5.535 19.373 16.605 0 77.492 77.492 143.914 174.357 143.914 16.605 0 33.211-2.768 49.816-5.535 13.838-5.535 24.908-2.768 33.211 8.303 0 5.535 0 8.303-5.535 11.070l-246.314 293.362c-2.768 2.768-2.768 2.768-5.535 5.535-5.535 2.768-8.303 2.768-11.070 2.768h-119.005c-11.070 0-19.373-5.535-19.373-13.838 2.768-8.303 11.070-13.838 19.373-13.838h94.097l96.865-287.827-11.070-5.535c-22.141-13.838-44.281-30.443-60.886-49.816l-2.768-8.303h-249.081v135.611h60.886c11.070 0 19.373 5.535 19.373 16.605v19.373c0 8.303-8.303 16.605-19.373 13.838h-415.135c-11.070 0-19.373-5.535-19.373-16.605v-19.373c0-8.303 8.303-13.838 19.373-13.838h83.027zM221.405 705.384c2.768 0 8.303-2.768 8.303-5.535 0 0 0 0 0 0v-2.768c11.070 0 19.373-2.768 27.676-8.303 2.768-5.535 5.535-5.535 5.535-11.070s-5.535-8.303-11.070-8.303c-2.768 0-2.768 0-5.535 2.768-5.535 2.768-11.070 5.535-19.373 5.535v-27.676c27.676-5.535 38.746-16.605 38.746-30.443s-16.605-27.676-38.746-30.443v-8.303c0-5.535-2.768-8.303-8.303-8.303-2.768 0-5.535 2.768-5.535 8.303v8.303c-13.838 0-27.676 5.535-38.746 11.070-2.768 0-5.535 5.535-5.535 11.070s5.535 5.535 11.070 5.535v0c2.768 0 5.535 0 5.535-2.768 8.303-5.535 16.605-8.303 27.676-11.070v30.443c-27.676 5.535-38.746 13.838-38.746 30.443s16.605 27.676 38.746 27.676v5.535c0 5.535 2.768 8.303 8.303 8.303 0 0 0 0 0 0zM213.103 652.8v27.676c-11.070 0-16.605-5.535-16.605-13.838 0-5.535 2.768-11.070 16.605-13.838zM226.941 630.659v-27.676c11.070 0 19.373 5.535 19.373 13.838s-5.535 11.070-19.373 13.838z" />
<glyph unicode="&#xe906;" glyph-name="mobile-wallet" d="M527.754 34.462h196.923v-31.508h-196.923v31.508zM397.785 660.677h31.508v-496.246h-31.508v496.246zM992.492 629.169h-66.954v248.123c0 47.262-35.446 82.708-82.708 82.708 0 0 0 0 0 0h-429.292c-47.262 0-82.708-35.446-82.708-82.708v-82.708h-263.877v-181.169h-66.954v-496.246h330.831v-98.462c0-47.262 35.446-82.708 82.708-82.708v0h429.292c47.262 0 82.708 35.446 82.708 82.708 0 0 0 0 0 0v248.123h66.954c19.692 0 31.508 15.754 31.508 31.508v299.323c0 15.754-15.754 31.508-31.508 31.508zM992.492 562.215h-464.738v35.446h464.738v-35.446zM527.754 530.708h464.738v-31.508h-464.738v31.508zM413.538 928.492h429.292c27.569 0 51.2-23.631 51.2-51.2v-51.2h-531.692v51.2c0 27.569 23.631 51.2 51.2 51.2zM330.831 444.062c-3.938 3.938-11.815 3.938-15.754 3.938v31.508h-35.446v-31.508c-27.569 0-51.2-23.631-51.2-51.2s23.631-51.2 51.2-51.2c0 0 0 0 0 0h35.446c7.877 0 15.754-7.877 15.754-15.754s-7.877-15.754-15.754-15.754c0 0 0 0 0 0h-35.446c-7.877 0-15.754 7.877-15.754 15.754h-31.508c0-27.569 23.631-51.2 51.2-51.2v-27.569h31.508v31.508c3.938 0 11.815 0 15.754 3.938v-66.954c-78.769-19.692-161.477 31.508-181.169 110.277s31.508 161.477 110.277 181.169c23.631 3.938 47.262 3.938 70.892 0v-66.954zM330.831 377.108c-3.938 3.938-11.815 3.938-15.754 3.938h-35.446c-7.877 0-15.754 7.877-15.754 15.754s7.877 15.754 15.754 15.754c0 0 0 0 0 0h35.446c7.877 0 15.754-7.877 15.754-15.754v-19.692zM98.462 763.077h232.369v-149.662h-232.369v149.662zM31.508 148.677v429.292h299.323v-35.446c-11.815 3.938-23.631 3.938-31.508 3.938-98.462 0-181.169-82.708-181.169-181.169s82.708-181.169 181.169-181.169c0 0 0 0 0 0 11.815 0 23.631 0 31.508 3.938v-35.446l-299.323-3.938zM842.831-32.492h-429.292c-27.569 0-51.2 23.631-51.2 51.2v51.2h527.754v-51.2c3.938-27.569-19.692-51.2-47.262-51.2zM894.031 101.415h-531.692v693.169h527.754v-165.415h-362.338c-19.692 0-31.508-15.754-31.508-31.508v-299.323c0-19.692 15.754-31.508 31.508-31.508h362.338l3.938-165.415zM527.754 298.338v165.415h464.738v-165.415h-464.738zM563.2 365.292h82.708v-31.508h-82.708v31.508zM98.462 514.954h31.508v31.508h-63.015v-66.954h31.508v35.446zM133.908 727.631v-66.954h31.508v35.446h31.508v31.508h-63.015zM98.462 251.077h-31.508v-66.954h66.954v31.508h-35.446v35.446zM925.538 365.292h31.508v-31.508h-31.508v31.508zM858.585 365.292h31.508v-31.508h-31.508v31.508zM397.785 727.631h31.508v-31.508h-31.508v31.508z" />
<glyph unicode="&#xe907;" glyph-name="new" d="M512-47.616c0 0 0 0 0 0-274.432 4.096-495.616 233.472-491.52 507.904 0 131.072 49.152 258.048 139.264 352.256s217.088 147.456 348.16 151.552c274.432-4.096 495.616-229.376 491.52-503.808 8.192-274.432-208.896-503.808-487.424-507.904 4.096 0 0 0 0 0zM512 878.080c-114.688-4.096-212.992-45.056-290.816-126.976-77.824-77.824-118.784-184.32-118.784-294.912-4.096-229.376 180.224-421.888 409.6-425.984 0 0 4.096 0 4.096 0 229.376 4.096 409.6 192.512 405.504 421.888 4.096 233.472-180.224 421.888-409.6 425.984v0zM512 226.816c-24.576 0-40.96 16.384-40.96 40.96v376.832c0 24.576 16.384 40.96 40.96 40.96s40.96-16.384 40.96-40.96v-376.832c0-24.576-16.384-40.96-40.96-40.96zM692.224 415.232h-356.352c-24.576 0-40.96 16.384-40.96 40.96s16.384 40.96 40.96 40.96h356.352c24.576 0 40.96-16.384 40.96-40.96s-16.384-40.96-40.96-40.96z" />
<glyph unicode="&#xe908;" glyph-name="plus" horiz-adv-x="1023" d="M421.657-63.943v424.776h-421.657v177.51h421.657v421.657h179.608v-421.657h421.657v-177.51h-421.657v-424.776z" />
<glyph unicode="&#xe909;" d="M512-27.429c-262.152 0-475.429 213.277-475.429 475.429s213.277 475.429 475.429 475.429c262.152 0 475.429-213.277 475.429-475.429s-213.277-475.429-475.429-475.429z" />
<glyph unicode="&#xe90a;" d="M512 886.857c-241.987 0-438.857-196.871-438.857-438.857s196.871-438.857 438.857-438.857c241.987 0 438.857 196.871 438.857 438.857s-196.871 438.857-438.857 438.857zM512 960c282.77 0 512-229.23 512-512s-229.23-512-512-512c-282.77 0-512 229.23-512 512s229.23 512 512 512z" />
<glyph unicode="&#xe90b;" d="M877.714 448c0-201.978-163.736-365.714-365.714-365.714s-365.714 163.736-365.714 365.714c0 201.978 163.736 365.714 365.714 365.714s365.714-163.736 365.714-365.714z" />
<glyph unicode="&#xe90c;" glyph-name="radio-unchecked" d="M512 886.857c-241.987 0-438.857-196.871-438.857-438.857s196.871-438.857 438.857-438.857c241.987 0 438.857 196.871 438.857 438.857s-196.871 438.857-438.857 438.857zM512 960c282.77 0 512-229.23 512-512s-229.23-512-512-512c-282.77 0-512 229.23-512 512s229.23 512 512 512z" />
<glyph unicode="&#xe90d;" glyph-name="receivers" d="M731.773 387.252c-96.865 0-174.357 77.492-174.357 174.357s77.492 174.357 174.357 174.357c96.865 0 174.357-77.492 174.357-174.357s-77.492-174.357-174.357-174.357zM731.773 688.917c-69.189 0-124.541-55.351-124.541-124.541s55.351-124.541 124.541-124.541c69.189 0 124.541 55.351 124.541 124.541s-55.351 124.541-124.541 124.541zM576.789 373.414c-8.303 0-16.605 2.768-22.141 11.070-8.303 11.070-5.535 27.676 8.303 33.211 27.676 16.605 55.351 30.443 88.562 38.746 13.838 2.768 27.676-5.535 30.443-19.373s-5.535-27.676-19.373-30.443c-24.908-5.535-49.816-16.605-71.957-30.443-5.535 0-8.303-2.768-13.838-2.768zM997.459 179.684h-296.13c-13.838 0-24.908 11.070-24.908 24.908s11.070 24.908 24.908 24.908h265.686c-11.070 49.816-49.816 149.449-163.286 177.124-13.838 2.768-22.141 16.605-19.373 30.443s16.605 22.141 30.443 16.605c185.427-49.816 204.8-240.778 207.568-249.081 0-8.303-2.768-13.838-5.535-19.373-5.535-2.768-13.838-5.535-19.373-5.535zM332.108 367.741c-110.703 0-199.265 88.562-199.265 199.265s88.562 199.265 199.265 199.265c110.703 0 199.265-88.562 199.265-199.265s-88.562-199.265-199.265-199.265zM332.108 716.454c-83.027 0-149.449-66.422-149.449-149.449s66.422-149.449 149.449-149.449 149.449 66.422 149.449 149.449-66.422 149.449-149.449 149.449zM642.076 121.427h-617.168c-5.535 0-13.838 2.768-19.373 8.303s-8.303 11.070-5.535 19.373c0 2.768 19.373 240.778 240.778 290.595 13.838 2.768 27.676-5.535 30.443-19.373s-5.535-27.676-19.373-30.443c-146.681-33.211-188.195-160.519-199.265-218.638h559.049c-13.838 55.351-55.351 179.892-196.497 215.87-13.838 2.768-22.141 16.605-16.605 30.443 2.768 13.838 16.605 22.141 30.443 16.605 213.103-55.351 238.011-285.059 238.011-285.059 0-8.303-2.768-13.838-5.535-19.373-5.535-5.535-13.838-8.303-19.373-8.303z" />
<glyph unicode="&#xe90e;" glyph-name="search" horiz-adv-x="1036" d="M1000.727 17.455l-244.364 244.364c139.636 162.909 128 401.455-23.273 552.727-162.909 157.091-418.909 157.091-581.818 0-157.091-157.091-162.909-407.273-5.818-564.364 0 0 5.818-5.818 5.818-5.818 151.273-151.273 395.636-157.091 558.545-17.455l244.364-238.545c11.636-11.636 29.091-11.636 46.545 0 0 0 0 0 0 0 11.636 0 11.636 11.636 0 29.091 0 0 0 0 0 0zM197.818 279.273c-64 64-104.727 151.273-98.909 244.364 0 93.091 34.909 180.364 98.909 244.364s151.273 98.909 244.364 98.909c93.091 0 180.364-34.909 244.364-98.909s104.727-151.273 98.909-244.364c0-93.091-34.909-180.364-98.909-244.364-133.818-133.818-354.909-133.818-488.727 0v0zM977.455-64c0 0 0 0 0 0-17.455 0-29.091 5.818-40.727 17.455l-226.909 221.091c-174.545-133.818-418.909-116.364-576 40.727l-5.818 5.818c-87.273 87.273-128 192-128 308.364s46.545 221.091 128 302.545c174.545 168.727 448 168.727 622.545 0 157.091-151.273 174.545-395.636 40.727-570.182l226.909-221.091c5.818 0 5.818-5.818 5.818-11.636 5.818-11.636 11.636-29.091 11.636-40.727s-11.636-29.091-23.273-34.909c-5.818-11.636-23.273-17.455-34.909-17.455zM709.818 256l261.818-261.818h5.818l-267.636 261.818 23.273 23.273c128 151.273 122.182 372.364-23.273 512-151.273 145.455-389.818 151.273-541.091 0-69.818-69.818-110.545-162.909-110.545-261.818 0-81.455 23.273-157.091 69.818-221.091h5.818c-46.545 64-69.818 139.636-69.818 215.273 0 98.909 40.727 192 110.545 261.818s168.727 110.545 261.818 110.545c0 0 5.818 0 5.818 0 98.909 0 192-40.727 267.636-110.545 69.818-69.818 110.545-162.909 110.545-261.818s-40.727-192-110.545-267.636c-151.273-139.636-384-139.636-535.273 5.818l-46.545 46.545c11.636-11.636 23.273-29.091 34.909-40.727l5.818-5.818c145.455-139.636 366.545-151.273 517.818-17.455l23.273 11.636zM977.455 0v0 0 0zM221.091 296.727c128-116.364 320-116.364 448 5.818 58.182 58.182 93.091 139.636 93.091 221.091s-34.909 162.909-93.091 221.091c-58.182 58.182-139.636 93.091-226.909 93.091 0 0 0 0-5.818 0-81.455 0-162.909-34.909-221.091-93.091s-93.091-139.636-93.091-221.091c0-81.455 34.909-162.909 93.091-221.091l5.818-5.818z" />
<glyph unicode="&#xe90f;" glyph-name="send-to" d="M454.122 7.235c-4.452 0-13.357 0-17.809 4.452-26.713 4.452-44.522 35.617-44.522 62.33l44.522 431.861-400.696 160.278c0 0 0 4.452-4.452 4.452-17.809 13.357-31.165 40.070-31.165 66.783 0 0 0 4.452 0 4.452 4.452 26.713 22.261 44.522 44.522 57.878 4.452 0 4.452 0 8.904 4.452l908.243 89.043c13.357 4.452 31.165 4.452 44.522-4.452 8.904-8.904 17.809-22.261 17.809-35.617 8.904-17.809 8.904-44.522-4.452-62.33l-507.548-747.965c-4.452-8.904-8.904-17.809-17.809-22.261-4.452-4.452-13.357-8.904-22.261-8.904-4.452-4.452-8.904-4.452-17.809-4.452zM445.217 56.209v0 0zM445.217 78.47c0 0 0 0 0 0s0 0 0 0zM71.235 728.487l418.504-169.183c13.357-4.452 22.261-17.809 22.261-35.617l-48.974-436.313 498.643 734.609-894.887-89.043c0 0 0 0 4.452-4.452-4.452 0-4.452 0 0 0zM970.574 857.6v0 0z" />
<glyph unicode="&#xe910;" glyph-name="chevron-down" d="M124.672 789.333l-124.672-124.672 530.603-530.603 530.603 530.603-124.672 124.672-405.931-404.992z" />
<glyph unicode="&#xe911;" glyph-name="chevron-l" d="M845.483 837.006l-122.994 122.994-523.378-523.378 523.378-523.378 122.994 122.994-399.531 400.384z" />
<glyph unicode="&#xe912;" glyph-name="chevron-right" d="M199.111 36.238l122.994-122.994 523.378 523.378-523.378 523.378-122.994-122.994 399.531-400.384z" />
<glyph unicode="&#xe913;" glyph-name="chevron-up" d="M936.533 134.059l124.672 124.672-530.603 530.603-530.603-530.603 124.672-124.672 405.931 404.992z" />
<glyph unicode="&#xe914;" glyph-name="calender" d="M757.221 747.116v0h-474.274c-21.558 0-37.726 16.168-37.726 43.116s16.168 37.726 43.116 37.726c0 0 0 0 0 0h474.274c21.558 0 43.116-16.168 37.726-43.116s-16.168-37.726-43.116-37.726zM951.242-34.358h-867.705c-48.505 0-80.842 32.337-80.842 70.063v722.189c0 43.116 32.337 70.063 80.842 70.063h80.842c21.558 0 37.726-16.168 37.726-37.726s-16.168-43.116-37.726-43.116h-80.842c0 0 0 0 0 0v-700.632c0 0 0 0 0 0h867.705v700.632h-80.842c-21.558 0-43.116 16.168-43.116 43.116s16.168 43.116 43.116 43.116h86.232c43.116 0 80.842-37.726 80.842-80.842v-706.021c-5.389-43.116-43.116-80.842-86.232-80.842zM988.968 563.874h-943.158c-21.558 0-43.116 16.168-43.116 43.116s16.168 43.116 43.116 43.116h943.158c21.558 0 43.116-16.168 43.116-43.116s-21.558-43.116-43.116-43.116zM223.663 687.832c-21.558 0-37.726 16.168-37.726 37.726v140.126c0 21.558 16.168 43.116 43.116 43.116s37.726-21.558 37.726-43.116v-140.126c0-21.558-21.558-37.726-43.116-37.726zM821.895 687.832c-21.558 0-43.116 16.168-43.116 43.116v134.737c0 21.558 16.168 43.116 43.116 43.116s43.116-16.168 43.116-43.116v-140.126c-5.389-21.558-21.558-37.726-43.116-37.726z" />
<glyph unicode="&#xe915;" glyph-name="cash-pickup" d="M893.806 294.4h-874.789c-11.703 0-17.554 8.777-17.554 20.48v421.303c0 11.703 8.777 17.554 17.554 17.554h874.789c11.703 0 20.48-8.777 20.48-17.554v-421.303c0-11.703-8.777-20.48-20.48-20.48zM36.571 332.434h836.754v386.194h-836.754v-386.194zM999.131 127.634h-874.789c-11.703 0-17.554 8.777-17.554 20.48v81.92c0 11.703 8.777 20.48 17.554 20.48s17.554-8.777 17.554-20.48v-64.366h836.754v403.749c0 11.703 8.777 17.554 20.48 17.554s20.48-8.777 20.48-17.554v-421.303c0-11.703-8.777-20.48-20.48-20.48zM451.906 505.549c-43.886 0-78.994 32.183-81.92 73.143 0 0 0 2.926 0 2.926 5.851 43.886 43.886 76.069 87.771 73.143 43.886 2.926 81.92-29.257 87.771-73.143 0-11.703-5.851-20.48-17.554-20.48s-20.48 8.777-20.48 17.554c-2.926 23.406-26.331 40.96-49.737 40.96 0 0-2.926 0-2.926 0-23.406 0-43.886-14.629-46.811-38.034 2.926-23.406 23.406-38.034 46.811-38.034 8.777 0 20.48-5.851 20.48-17.554s-5.851-20.48-17.554-20.48c-2.926 0-5.851 0-5.851 0zM463.609 394.372c-2.926 0-2.926 0-5.851 0-43.886-2.926-81.92 29.257-87.771 73.143 0 11.703 5.851 20.48 17.554 20.48s20.48-5.851 20.48-17.554c0-23.406 23.406-40.96 46.811-38.034 0 0 2.926 0 2.926 0 23.406-2.926 43.886 14.629 46.811 38.034-2.926 20.48-23.406 38.034-46.811 35.109-11.703 0-20.48 5.851-20.48 17.554s5.851 20.48 17.554 20.48c43.886 2.926 84.846-29.257 90.697-73.143 0 0 0-2.926 0-2.926-5.851-43.886-40.96-73.143-81.92-73.143zM457.757 361.106c-11.703 0-17.554 8.777-17.554 20.48v286.72c0 11.703 8.777 17.554 17.554 17.554s17.554-5.851 17.554-17.554v-286.72c0-11.703-8.777-20.48-17.554-20.48z" />
<glyph unicode="&#xe916;" glyph-name="contact-book" d="M871.14 25.316c-0.096-16.582-13.512-29.998-30.085-30.094h-694.338c-16.582 0.096-29.998 13.512-30.094 30.085v12.183h646.428c32.977 0.032 59.701 26.757 59.733 59.73v802.535c0 0.034 0 0.074 0 0.114 0 32.927-26.693 59.62-59.62 59.62-0.040 0-0.080 0-0.12 0h-646.422c-32.977-0.032-59.701-26.757-59.733-59.73v-874.442c0.161-49.546 40.282-89.666 89.812-89.828h694.571c49.546 0.161 89.666 40.282 89.828 89.812v124.431h-59.733v-124.416zM226.475 643.755c0.989 16.537 8.304 31.194 19.536 41.725l0.034 0.031c12.971 12.174 25.088 25.088 37.774 37.774 6.634 7.54 16.304 12.273 27.079 12.273s20.445-4.733 27.045-12.233l0.034-0.040c10.297-10.012 20.594-20.366 30.663-30.663l29.582-29.81c8.010-6.643 13.073-16.597 13.073-27.733s-5.063-21.091-13.013-27.685l-0.059-0.048c-12.402-12.402-24.86-25.088-37.49-37.262-1.855-1.372-3.044-3.551-3.044-6.009 0-1.486 0.435-2.871 1.185-4.033l-0.018 0.029c9.203-20.821 20.527-38.762 34.063-54.772l-0.271 0.329c26.776-33.644 58.112-62.193 93.386-85.209l1.505-0.921c7.908-4.779 16.384-8.476 24.86-12.971 1.213-0.851 2.72-1.36 4.346-1.36 2.567 0 4.838 1.269 6.219 3.214l0.016 0.024c12.402 12.971 25.088 25.372 37.774 37.774 6.634 7.54 16.304 12.273 27.079 12.273s20.445-4.733 27.045-12.233l0.034-0.040c20.366-20.082 40.676-40.448 60.757-60.757 7.787-6.716 12.686-16.596 12.686-27.62s-4.899-20.903-12.639-27.58l-0.047-0.040c-11.378-11.378-23.78-22.756-34.133-34.873-12.548-13.908-30.635-22.613-50.755-22.613-2.682 0-5.329 0.155-7.93 0.456l0.317-0.030c-34.34 2.911-65.848 12.552-94.032 27.601l1.303-0.635c-66.219 32.479-121.992 76.537-166.841 130.060l-0.64 0.785c-33.695 38.737-61.497 83.748-81.3 132.844l-1.132 3.177c-8.964 20.67-14.179 44.743-14.179 70.034 0 2.379 0.046 4.748 0.138 7.105l-0.010-0.339zM952.889 621.284h-79.644v-175.673h79.644c19.857 0 35.954 16.097 35.954 35.954v0 103.822c0 19.857-16.097 35.954-35.954 35.954v0zM952.889 387.755h-79.644v-175.673h79.644c19.857 0 35.954 16.097 35.954 35.954v0 103.822c0 19.857-16.097 35.954-35.954 35.954v0zM952.889 854.869h-79.644v-175.673h79.644c19.857 0 35.954 16.097 35.954 35.954v0 103.765c0 19.857-16.097 35.954-35.954 35.954v0z" />
</font>
</defs>
</svg>
